<svg width="85" height="117" viewBox="0 0 85 117" fill="none" xmlns="http://www.w3.org/2000/svg">
<g clip-path="url(#clip0_21_22)">
<path d="M81.66 29.0725C85.43 39.0925 85 49.0125 80.05 58.3025C72.63 72.3025 60.71 79.4025 44.84 79.6625C39.76 79.7425 34.68 79.5125 29.6 79.4525C26.43 79.4525 26.35 79.5225 26.33 82.6225C26.25 93.0225 26.11 103.432 26.14 113.842C26.14 116.242 25.38 117.022 22.99 116.972C16.58 116.842 10.16 116.862 3.74999 116.972C1.55999 116.972 0.849985 116.242 0.879985 114.072C0.979985 106.422 0.779985 98.7525 0.949985 91.0725C1.27999 75.3425 13.87 60.4525 29.34 57.7525C33.4 57.0425 37.65 57.4725 41.8 57.3125C46.95 57.1125 52.16 57.3125 57.23 56.5325C70.82 54.5325 79.11 43.7025 81.32 31.2025C81.44 30.5025 81.55 29.7825 81.66 29.0725Z" fill="#2D53BE"/>
<path d="M57.27 52.2725C61.18 49.4925 64 46.0025 64.86 41.2725C66.68 31.2125 59.36 22.6725 48.96 22.4625C42.89 22.3325 36.77 22.4625 30.76 21.7325C21.88 20.6525 13.62 17.6025 6.76 11.5825C3.39 8.62248 0.8 5.12248 0 0.172483C1 0.112483 1.76 0.0124831 2.54 0.0124831H50C55.0985 -0.128947 60.1586 0.933089 64.77 3.11248C73.26 7.39248 77.5 14.1125 77.89 23.8025C78.42 36.9625 69.49 47.8025 60.05 51.3025C59.14 51.6825 58.2 52.0125 57.27 52.2725Z" fill="#2595DB"/>
</g>
<defs>
<clipPath id="clip0_21_22">
<rect width="84.1698" height="116.975" fill="white"/>
</clipPath>
</defs>
</svg>
