<svg width="223" height="52" viewBox="0 0 223 52" fill="none" xmlns="http://www.w3.org/2000/svg">
<g clip-path="url(#clip0_21_31)">
<path d="M35.8967 12.9239C37.554 17.3782 37.3649 21.788 35.189 25.9178C31.9272 32.1414 26.6874 35.2976 19.7111 35.4132C17.478 35.4488 15.2449 35.3465 13.0118 35.3198C11.6183 35.3198 11.5831 35.351 11.5743 36.729C11.5392 41.3523 11.4776 45.9799 11.4908 50.6076C11.4908 51.6745 11.1567 52.0212 10.1061 51.999C7.28836 51.9412 4.4662 51.9501 1.64845 51.999C0.685751 51.999 0.373644 51.6745 0.386832 50.7098C0.43079 47.3091 0.342873 43.8995 0.417603 40.4854C0.562667 33.4928 6.09707 26.8736 12.8975 25.6733C14.6822 25.3577 16.5505 25.5488 18.3748 25.4777C20.6386 25.3888 22.9289 25.4777 25.1576 25.131C31.1316 24.2419 34.7758 19.4275 35.7473 13.8708C35.8 13.5596 35.8484 13.2395 35.8967 12.9239Z" fill="#2D53BE"/>
<path d="M25.1752 23.2372C26.894 22.0014 28.1336 20.45 28.5116 18.3473C29.3117 13.8752 26.0939 10.0788 21.5222 9.98548C18.8539 9.92769 16.1636 9.98548 13.5217 9.66097C9.61818 9.18087 5.98718 7.82502 2.97161 5.14888C1.4902 3.83304 0.35167 2.27715 0 0.0766757C0.439588 0.0500033 0.773674 0.00554922 1.11655 0.00554922H21.9794C24.2206 -0.0573221 26.445 0.414796 28.4721 1.38362C32.2042 3.28626 34.068 6.27357 34.2395 10.5812C34.4725 16.4313 30.5469 21.2501 26.3972 22.806C25.9972 22.975 25.584 23.1217 25.1752 23.2372Z" fill="#2595DB"/>
</g>
<path d="M44 33.6722H51.37V30.5622H49.62V27.6522H52.8C56.99 27.6522 59.96 25.7322 59.96 21.5222C59.96 17.1922 56.99 15.5722 52.8 15.5722H44V18.6822H45.75V30.5622H44V33.6722ZM52.8 18.6822C54.94 18.6822 56.37 19.4622 56.34 21.6022C56.34 23.7322 54.88 24.5722 52.8 24.5722H49.62V18.6822H52.8ZM61.34 26.6722C61.34 31.3222 64.26 33.8922 68.44 33.8922C70.95 33.8922 72.71 33.1022 74.14 31.8922L73.28 29.0022C72.12 29.9422 70.93 30.7022 69.23 30.7022C67.06 30.7022 65.74 29.6522 65.28 27.9222H74.79C74.82 27.5122 74.84 26.7022 74.84 26.3522C74.84 22.3822 72.79 19.5722 68.36 19.5722C64.34 19.5722 61.34 22.1422 61.34 26.6722ZM65.17 25.7322C65.47 23.7622 66.74 22.5422 68.47 22.5422C70.71 22.5422 71.76 24.1122 71.76 25.7322H65.17ZM83.08 33.6722V30.9122H81.3V28.3522C81.62 24.8922 83.41 23.1122 86.11 23.1122C86.35 23.1122 86.59 23.1422 86.89 23.1622V19.6022C86.67 19.5722 86.46 19.5722 86.27 19.5722C84 19.5722 82.38 20.7322 81.3 22.4322V19.7922H75.87V22.5122H77.63V30.9122H75.87V33.6722H83.08ZM93.99 19.5722C90 19.5722 88.02 21.1422 88.02 23.6522C88.02 28.2922 95.67 27.7822 95.67 29.8622C95.67 30.9422 94.83 31.2422 93.45 31.2422C92.62 31.2422 91.89 31.1022 91.1 30.9122L90.92 28.8922H88.13V32.8922C89.65 33.4022 91.7 33.8922 93.86 33.8922C97.83 33.8922 99.4 32.4022 99.4 29.9222C99.4 25.2222 91.75 25.7622 91.75 23.4122C91.75 22.4122 92.75 22.1422 94.26 22.1422C94.91 22.1422 95.51 22.1622 96.07 22.3522L96.26 24.3822H98.88V20.5222C97.83 20.0822 96.05 19.5722 93.99 19.5722ZM111.17 26.6522C111.17 29.1322 109.77 30.5922 107.9 30.5922C105.99 30.5922 104.66 29.1622 104.66 26.6522C104.66 24.1622 106.04 22.7322 107.9 22.7322C109.77 22.7322 111.17 24.1622 111.17 26.6522ZM114.93 26.6722C114.93 22.1422 111.82 19.5722 107.9 19.5722C103.99 19.5722 100.88 22.1422 100.88 26.6722C100.88 31.3222 103.99 33.8922 107.9 33.8922C111.82 33.8922 114.93 31.3222 114.93 26.6722ZM115.68 19.8122V22.5422H117.44V30.9122H115.68V33.6722H122.9V30.9122H121.11V24.7622C121.63 23.5722 122.44 22.5122 123.73 22.5122C125.46 22.5122 126.3 23.7322 126.3 26.3222V33.6722H131.73V30.9122H129.97V25.4022C129.97 21.6022 128.08 19.5422 124.84 19.5422C123.22 19.5422 122 20.2522 121.11 21.2222V19.8122H115.68ZM132.48 26.6722C132.48 31.3222 135.02 33.8922 138.51 33.8922C140.24 33.8922 141.59 33.3522 142.59 32.2722V33.6722H148.04V30.9122H146.26V19.7922H142.59V21.2222C141.64 20.1122 140.26 19.5722 138.51 19.5722C135.02 19.5722 132.48 22.1422 132.48 26.6722ZM136.27 26.7622C136.27 24.2722 137.67 22.8422 139.62 22.8422C141.02 22.8422 142.15 23.6822 142.59 25.0822V28.5122C142.18 29.8922 141.02 30.7322 139.62 30.7322C137.67 30.7322 136.27 29.2422 136.27 26.7622ZM149.23 24.5722C149.23 30.7522 152.96 33.8922 158.04 33.8922C159.5 33.8922 160.79 33.6222 161.95 33.1022L165.33 36.0222L167.71 33.2122L164.76 31.0522C166.06 29.5122 166.84 27.3822 166.84 24.5722C166.84 18.4922 163.11 15.3622 158.04 15.3622C152.96 15.3622 149.23 18.4922 149.23 24.5722ZM153.15 24.5722C153.15 20.8922 155.07 18.7122 158.06 18.7122C161.01 18.7122 162.95 20.9222 162.95 24.5722C162.95 28.3222 161.01 30.5422 158.06 30.5422C155.07 30.5422 153.15 28.3222 153.15 24.5722ZM170.08 22.5422V28.0522C170.08 31.9122 171.97 33.9122 175.22 33.9122C176.84 33.9122 178.05 33.2422 178.94 32.2422V33.6722H184.37V30.9122H182.62V19.8122H177.16V22.5422H178.94V28.7022C178.43 29.8922 177.62 30.9422 176.35 30.9422C174.62 30.9422 173.76 29.7322 173.76 27.1322V19.8122H168.33V22.5422H170.08ZM185.13 26.6722C185.13 31.3222 188.05 33.8922 192.23 33.8922C194.74 33.8922 196.5 33.1022 197.93 31.8922L197.07 29.0022C195.91 29.9422 194.72 30.7022 193.02 30.7022C190.86 30.7022 189.53 29.6522 189.07 27.9222H198.58C198.61 27.5122 198.63 26.7022 198.63 26.3522C198.63 22.3822 196.58 19.5722 192.15 19.5722C188.13 19.5722 185.13 22.1422 185.13 26.6722ZM188.96 25.7322C189.26 23.7622 190.53 22.5422 192.26 22.5422C194.5 22.5422 195.55 24.1122 195.55 25.7322H188.96ZM206.09 19.5722C202.09 19.5722 200.12 21.1422 200.12 23.6522C200.12 28.2922 207.76 27.7822 207.76 29.8622C207.76 30.9422 206.93 31.2422 205.55 31.2422C204.71 31.2422 203.98 31.1022 203.2 30.9122L203.01 28.8922H200.23V32.8922C201.74 33.4022 203.79 33.8922 205.95 33.8922C209.92 33.8922 211.49 32.4022 211.49 29.9222C211.49 25.2222 203.85 25.7622 203.85 23.4122C203.85 22.4122 204.85 22.1422 206.36 22.1422C207.01 22.1422 207.6 22.1622 208.17 22.3522L208.36 24.3822H210.98V20.5222C209.92 20.0822 208.14 19.5722 206.09 19.5722ZM212.52 19.7922V22.5122H214.65V27.7322C214.65 32.0522 216.25 33.9422 219.03 33.9422C220.08 33.9422 221.24 33.7022 222.57 33.2122L222.13 29.9722C221.3 30.2722 220.62 30.4622 220 30.4622C218.95 30.4622 218.33 29.8122 218.33 27.8422V22.5122H222.21V19.7922H218.33V15.7322H214.65V19.7922H212.52Z" fill="#333333"/>
<defs>
<clipPath id="clip0_21_31">
<rect width="37" height="52" fill="white"/>
</clipPath>
</defs>
</svg>
